<?xml version="1.0" encoding="UTF-8"?>
<svg width="41px" height="27px" viewBox="0 0 41 27" version="1.1" xmlns="http://www.w3.org/2000/svg" xmlns:xlink="http://www.w3.org/1999/xlink">
    <!-- Generator: Sketch 48.2 (47327) - http://www.bohemiancoding.com/sketch -->
    <title>download-icon</title>
    <desc>Created with Sketch.</desc>
    <defs></defs>
    <g id="Page-1" stroke="none" stroke-width="1" fill="none" fill-rule="evenodd">
        <g id="download-icon">
            <path d="M9.37606957,9.16038787 C10.7055129,3.89300248 15.4057039,0 21,0 C27.627417,0 33,5.46364373 33,12.2033898 C37.418278,12.2033898 41,15.6181672 41,19.8305085 C41,24.0428498 37.418278,27.4576271 33,27.4576271 L8,27.4576271 L8,27.4017673 C3.50004954,26.8958918 0,23.0161563 0,18.3050847 C0,13.2502752 4.02943725,9.15254237 9,9.15254237 C9.12597782,9.15254237 9.2513511,9.15517458 9.37606957,9.16038787 Z" id="Combined-Shape" fill="#191CB6"></path>
            <g id="Group" transform="translate(12.250000, 14.000000)" fill="#FFFFFF">
                <path d="M4.67760596,-0.594885314 L4.67760596,-0.594885314 C5.22989071,-0.594885314 5.67760596,-0.147170064 5.67760596,0.405114686 L5.67760596,8.7490871 C5.67760596,9.30137185 5.22989071,9.7490871 4.67760596,9.7490871 L4.67760596,9.7490871 C4.12532121,9.7490871 3.67760596,9.30137185 3.67760596,8.7490871 L3.67760596,0.405114686 C3.67760596,-0.147170064 4.12532121,-0.594885314 4.67760596,-0.594885314 Z" id="Rectangle-4" transform="translate(4.677606, 4.577101) rotate(-45.000000) translate(-4.677606, -4.577101) "></path>
                <path d="M10.8001235,-0.543435587 L10.8001235,-0.543435587 C11.3524082,-0.543435587 11.8001235,-0.0957203371 11.8001235,0.456564413 L11.8001235,8.80053683 C11.8001235,9.35282158 11.3524082,9.80053683 10.8001235,9.80053683 L10.8001235,9.80053683 C10.2478387,9.80053683 9.8001235,9.35282158 9.8001235,8.80053683 L9.8001235,0.456564413 C9.8001235,-0.0957203371 10.2478387,-0.543435587 10.8001235,-0.543435587 Z" id="Rectangle-4" transform="translate(10.800123, 4.628551) rotate(-315.000000) translate(-10.800123, -4.628551) "></path>
            </g>
            <rect id="Rectangle-4" fill="#FFFFFF" transform="translate(20.000000, 14.734846) rotate(-360.000000) translate(-20.000000, -14.734846) " x="19" y="8.63315065" width="2" height="12.2033898" rx="1"></rect>
        </g>
    </g>
</svg>