<?xml version="1.0" encoding="UTF-8"?>
<svg width="41px" height="27px" viewBox="0 0 41 27" version="1.1" xmlns="http://www.w3.org/2000/svg" xmlns:xlink="http://www.w3.org/1999/xlink">
    <!-- Generator: Sketch 48.2 (47327) - http://www.bohemiancoding.com/sketch -->
    <title>download-icon-outline</title>
    <desc>Created with Sketch.</desc>
    <defs></defs>
    <g id="Page-1" stroke="none" stroke-width="1" fill="none" fill-rule="evenodd">
        <g id="download-icon-outline">
            <path d="M8.55199775,26 L33,26 C36.8799036,26 40,23.0749096 40,19.5 C40,15.9250904 36.8799036,13 33,13 L32,13 L32,12 C32,5.92486775 27.0751322,1 21,1 C15.9490927,1 11.5825559,4.43345531 10.344673,9.25632554 L10.1435013,10.0401035 L9.33500045,10.0068711 C9.22366381,10.0022947 9.11198297,10 9,10 C4.581722,10 1,13.581722 1,18 C1,22.0871829 4.0809789,25.5057539 8.10987509,25.9511258 L8.55199775,26 Z" id="Combined-Shape" stroke="#FFFFFF" stroke-width="2"></path>
            <g id="Group" transform="translate(12.250000, 14.000000)" fill="#FFFFFF">
                <path d="M4.67760596,-0.594885314 L4.67760596,-0.594885314 C5.22989071,-0.594885314 5.67760596,-0.147170064 5.67760596,0.405114686 L5.67760596,8.7490871 C5.67760596,9.30137185 5.22989071,9.7490871 4.67760596,9.7490871 L4.67760596,9.7490871 C4.12532121,9.7490871 3.67760596,9.30137185 3.67760596,8.7490871 L3.67760596,0.405114686 C3.67760596,-0.147170064 4.12532121,-0.594885314 4.67760596,-0.594885314 Z" id="Rectangle-4" transform="translate(4.677606, 4.577101) rotate(-45.000000) translate(-4.677606, -4.577101) "></path>
                <path d="M10.8001235,-0.543435587 L10.8001235,-0.543435587 C11.3524082,-0.543435587 11.8001235,-0.0957203371 11.8001235,0.456564413 L11.8001235,8.80053683 C11.8001235,9.35282158 11.3524082,9.80053683 10.8001235,9.80053683 L10.8001235,9.80053683 C10.2478387,9.80053683 9.8001235,9.35282158 9.8001235,8.80053683 L9.8001235,0.456564413 C9.8001235,-0.0957203371 10.2478387,-0.543435587 10.8001235,-0.543435587 Z" id="Rectangle-4" transform="translate(10.800123, 4.628551) rotate(-315.000000) translate(-10.800123, -4.628551) "></path>
            </g>
            <rect id="Rectangle-4" fill="#FFFFFF" transform="translate(20.000000, 14.734846) rotate(-360.000000) translate(-20.000000, -14.734846) " x="19" y="8.63315065" width="2" height="12.2033898" rx="1"></rect>
        </g>
    </g>
</svg>