<?xml version="1.0" standalone="no"?>
<!DOCTYPE svg PUBLIC "-//W3C//DTD SVG 20010904//EN"
 "http://www.w3.org/TR/2001/REC-SVG-20010904/DTD/svg10.dtd">
<svg version="1.0" xmlns="http://www.w3.org/2000/svg"
 width="512.000000pt" height="512.000000pt" viewBox="0 0 512.000000 512.000000"
 preserveAspectRatio="xMidYMid meet">
<metadata>
Created by potrace 1.11, written by Peter Selinger 2001-2013
</metadata>
<g transform="translate(0.000000,512.000000) scale(0.100000,-0.100000)"
fill="#000000" stroke="none">
<path d="M2292 4804 c-480 -58 -934 -271 -1289 -608 -350 -332 -581 -763 -669
-1251 -22 -123 -29 -215 -29 -400 1 -192 7 -259 40 -430 22 -109 23 -112 56
-219 112 -362 292 -659 564 -932 343 -344 766 -559 1255 -638 170 -28 525 -28
675 -1 27 5 98 18 165 31 14 3 66 16 115 30 196 56 383 137 561 245 288 175
565 449 743 736 179 289 299 639 328 957 10 103 10 380 1 471 -20 184 -72 403
-135 565 -23 60 -38 93 -91 210 -33 73 -143 249 -222 356 -144 193 -394 420
-608 553 -237 147 -559 271 -797 306 -22 3 -53 8 -70 11 -72 13 -100 15 -285
18 -122 2 -237 -2 -308 -10z m532 -1108 c225 -49 430 -160 594 -324 l64 -65
-133 -128 c-74 -71 -136 -128 -139 -128 -3 0 -30 22 -60 50 -109 100 -229 170
-360 210 -60 18 -99 23 -195 23 -66 0 -136 -3 -155 -7 -242 -48 -447 -234
-522 -472 -19 -60 -22 -92 -22 -220 0 -135 3 -158 27 -230 60 -181 174 -312
341 -394 101 -49 202 -72 320 -72 228 0 393 71 576 248 l45 44 132 -137 c73
-75 130 -141 127 -146 -3 -5 -43 -41 -89 -82 -259 -226 -482 -308 -820 -301
-245 5 -414 54 -592 171 -148 98 -273 240 -353 402 -70 143 -101 280 -105 477
-6 255 44 438 171 630 162 243 435 413 738 460 105 17 310 12 410 -9z m-1682
-1405 c63 -31 134 -105 157 -166 25 -65 22 -163 -6 -225 -47 -105 -150 -171
-274 -176 -66 -3 -83 0 -135 25 -175 83 -235 278 -132 431 37 56 102 106 159
124 64 20 174 13 231 -13z m3121 -1 c25 -12 66 -42 91 -68 142 -143 96 -381
-90 -473 -68 -33 -197 -33 -266 0 -60 29 -126 95 -150 149 -41 92 -30 214 25
290 35 47 107 100 158 117 60 19 174 12 232 -15z m-2533 -780 c56 -28 118 -92
143 -149 17 -35 22 -65 21 -126 0 -95 -21 -143 -90 -211 -116 -112 -298 -110
-414 6 -157 157 -97 417 115 493 64 23 166 17 225 -13z m1931 3 c59 -27 122
-89 151 -150 32 -67 32 -179 0 -246 -88 -186 -332 -233 -476 -92 -64 62 -91
123 -90 210 0 106 19 153 91 221 84 81 218 104 324 57z m-959 -302 c103 -49
171 -151 174 -261 3 -86 -22 -152 -82 -212 -69 -71 -121 -92 -224 -92 -101 0
-154 21 -220 87 -62 62 -85 116 -85 207 0 91 23 145 86 209 43 42 55 49 129
77 52 19 166 11 222 -15z"/>
</g>
</svg>
